# Created by FreeCAD <https://www.freecad.org>
v 5.000000 -11.500000 22.000000
v 5.145291 -10.303422 0.000000
v 5.145291 -10.303422 22.000000
v 5.000000 -11.500000 0.000000
v 5.572720 -9.176384 0.000000
v 5.572720 -9.176384 22.000000
v 6.257446 -8.184386 0.000000
v 6.257446 -8.184386 22.000000
v 7.159676 -7.385081 22.000000
v 7.159676 -7.385081 0.000000
v 8.226975 -6.824919 22.000000
v 8.226975 -6.824919 0.000000
v 9.397317 -6.536456 0.000000
v 9.397317 -6.536456 22.000000
v 10.602683 -6.536456 0.000000
v 10.602683 -6.536456 22.000000
v 11.773025 -6.824919 0.000000
v 11.773025 -6.824919 22.000000
v 12.840323 -7.385081 0.000000
v 12.840323 -7.385081 22.000000
v 13.742554 -8.184386 22.000000
v 13.742554 -8.184386 0.000000
v 14.427280 -9.176384 0.000000
v 14.427280 -9.176384 22.000000
v 14.854709 -10.303422 0.000000
v 14.854709 -10.303422 22.000000
v 15.000000 -11.500000 0.000000
v 15.000000 -11.500000 22.000000
v 7.159676 -15.614920 22.000000
v 6.257446 -14.815614 22.000000
v 0.000000 -25.000000 22.000000
v 5.572720 -13.823616 22.000000
v 8.226975 -16.175081 22.000000
v 5.145291 -12.696578 22.000000
v 9.397317 -16.463545 22.000000
v 10.602683 -16.463545 22.000000
v 19.000000 -17.338709 22.000000
v 11.773025 -16.175081 22.000000
v 12.840323 -15.614920 22.000000
v 13.742554 -14.815614 22.000000
v 14.427280 -13.823616 22.000000
v 14.854709 -12.696578 22.000000
v 6.257446 8.184386 22.000000
v 7.159676 7.385081 22.000000
v 5.572720 9.176384 22.000000
v 8.226975 6.824919 22.000000
v 5.145291 10.303422 22.000000
v 9.397317 6.536456 22.000000
v 10.602683 6.536456 22.000000
v 11.773025 6.824919 22.000000
v 12.840323 7.385081 22.000000
v 13.742554 8.184386 22.000000
v 14.427280 9.176384 22.000000
v 0.000000 25.000000 22.000000
v 5.000000 11.500000 22.000000
v 7.159676 15.614920 22.000000
v 8.226975 16.175081 22.000000
v 6.257446 14.815614 22.000000
v 5.572720 13.823616 22.000000
v 5.145291 12.696578 22.000000
v 14.854709 10.303422 22.000000
v 9.397317 16.463545 22.000000
v 10.602683 16.463545 22.000000
v 19.000000 17.338709 22.000000
v 15.000000 11.500000 22.000000
v 14.854709 12.696578 22.000000
v 14.427280 13.823616 22.000000
v 13.742554 14.815614 22.000000
v 12.840323 15.614920 22.000000
v 11.773025 16.175081 22.000000
v 14.854709 -12.696578 0.000000
v 14.427280 -13.823616 0.000000
v 13.742554 -14.815614 0.000000
v 12.840323 -15.614920 0.000000
v 11.773025 -16.175081 0.000000
v 10.602683 -16.463545 0.000000
v 9.397317 -16.463545 0.000000
v 8.226975 -16.175081 0.000000
v 7.159676 -15.614920 0.000000
v 6.257446 -14.815614 0.000000
v 5.572720 -13.823616 0.000000
v 5.145291 -12.696578 0.000000
v 49.000000 5.241935 22.000000
v 62.000000 0.000000 22.000000
v 62.000000 0.000000 0.000000
v 41.500000 8.266129 9.009619
v 0.000000 25.000000 0.000000
v 0.000000 -25.000000 0.000000
v 41.500000 -8.266129 9.009619
v 49.000000 -5.241935 22.000000
v 5.145291 12.696578 0.000000
v 5.000000 11.500000 0.000000
v 5.572720 13.823616 0.000000
v 6.257446 14.815614 0.000000
v 7.159676 15.614920 0.000000
v 8.226975 16.175081 0.000000
v 9.397317 16.463545 0.000000
v 10.602683 16.463545 0.000000
v 11.773025 16.175081 0.000000
v 12.840323 15.614920 0.000000
v 13.742554 14.815614 0.000000
v 14.427280 13.823616 0.000000
v 14.854709 12.696578 0.000000
v 15.000000 11.500000 0.000000
v 14.854709 10.303422 0.000000
v 14.427280 9.176384 0.000000
v 13.742554 8.184386 0.000000
v 12.840323 7.385081 0.000000
v 11.773025 6.824919 0.000000
v 10.602683 6.536456 0.000000
v 9.397317 6.536456 0.000000
v 8.226975 6.824919 0.000000
v 7.159676 7.385081 0.000000
v 6.257446 8.184386 0.000000
v 5.572720 9.176384 0.000000
v 5.145291 10.303422 0.000000
vn 0.992709 -0.120537 0.000000
vn 0.992709 -0.120537 0.000000
vn 0.935016 -0.354605 0.000000
vn 0.935016 -0.354605 0.000000
vn 0.822984 -0.568065 0.000000
vn 0.663122 -0.748511 0.000000
vn 0.822984 -0.568065 0.000000
vn 0.464723 -0.885456 0.000000
vn 0.663122 -0.748511 0.000000
vn 0.464723 -0.885456 0.000000
vn 0.239316 -0.970942 0.000000
vn 0.239316 -0.970942 0.000000
vn 0.000000 -1.000000 0.000000
vn 0.000000 -1.000000 0.000000
vn -0.239316 -0.970942 0.000000
vn -0.239316 -0.970942 0.000000
vn -0.464723 -0.885456 0.000000
vn -0.663122 -0.748511 -0.000000
vn -0.464723 -0.885456 0.000000
vn -0.663122 -0.748511 0.000000
vn -0.822984 -0.568065 0.000000
vn -0.822984 -0.568065 0.000000
vn -0.935017 -0.354604 0.000000
vn -0.935017 -0.354604 0.000000
vn -0.992709 -0.120537 0.000000
vn -0.992709 -0.120537 0.000000
vn 0.000000 0.000000 1.000000
vn 0.000000 0.000000 1.000000
vn 0.000000 0.000000 1.000000
vn 0.000000 0.000000 1.000000
vn 0.000000 0.000000 1.000000
vn 0.000000 0.000000 1.000000
vn 0.000000 0.000000 1.000000
vn 0.000000 0.000000 1.000000
vn 0.000000 0.000000 1.000000
vn 0.000000 0.000000 1.000000
vn 0.000000 0.000000 1.000000
vn 0.000000 0.000000 1.000000
vn 0.000000 0.000000 1.000000
vn 0.000000 0.000000 1.000000
vn 0.000000 0.000000 1.000000
vn 0.000000 0.000000 1.000000
vn 0.000000 0.000000 1.000000
vn 0.000000 0.000000 1.000000
vn 0.000000 0.000000 1.000000
vn 0.000000 0.000000 1.000000
vn 0.000000 0.000000 1.000000
vn 0.000000 0.000000 1.000000
vn 0.000000 0.000000 1.000000
vn 0.000000 0.000000 1.000000
vn 0.000000 0.000000 1.000000
vn 0.000000 0.000000 1.000000
vn 0.000000 0.000000 1.000000
vn 0.000000 0.000000 1.000000
vn 0.000000 0.000000 1.000000
vn 0.000000 0.000000 1.000000
vn 0.000000 0.000000 1.000000
vn 0.000000 0.000000 1.000000
vn 0.000000 0.000000 1.000000
vn 0.000000 0.000000 1.000000
vn 0.000000 0.000000 1.000000
vn 0.000000 0.000000 1.000000
vn 0.000000 0.000000 1.000000
vn 0.000000 0.000000 1.000000
vn 0.000000 0.000000 1.000000
vn 0.000000 0.000000 1.000000
vn 0.000000 0.000000 1.000000
vn 0.000000 0.000000 1.000000
vn 0.000000 0.000000 1.000000
vn 0.000000 0.000000 1.000000
vn 0.000000 0.000000 1.000000
vn 0.000000 0.000000 1.000000
vn 0.000000 0.000000 1.000000
vn 0.000000 0.000000 1.000000
vn 0.000000 0.000000 1.000000
vn 0.000000 0.000000 1.000000
vn 0.000000 0.000000 1.000000
vn 0.000000 0.000000 1.000000
vn 0.000000 0.000000 1.000000
vn 0.000000 0.000000 1.000000
vn 0.000000 0.000000 1.000000
vn 0.000000 0.000000 1.000000
vn 0.000000 0.000000 1.000000
vn 0.000000 0.000000 1.000000
vn -0.992709 0.120537 0.000000
vn -0.992709 0.120537 0.000000
vn -0.935017 0.354604 0.000000
vn -0.935017 0.354604 0.000000
vn -0.822984 0.568065 0.000000
vn -0.822984 0.568065 0.000000
vn -0.663122 0.748511 0.000000
vn -0.663122 0.748511 0.000000
vn -0.464723 0.885456 0.000000
vn -0.464723 0.885456 0.000000
vn -0.239316 0.970942 0.000000
vn -0.239316 0.970942 0.000000
vn 0.000000 1.000000 0.000000
vn 0.000000 1.000000 -0.000000
vn 0.239316 0.970942 0.000000
vn 0.239316 0.970942 -0.000000
vn 0.464723 0.885456 0.000000
vn 0.464723 0.885456 -0.000000
vn 0.663123 0.748511 0.000000
vn 0.663123 0.748511 -0.000000
vn 0.822984 0.568065 0.000000
vn 0.822984 0.568065 -0.000000
vn 0.935016 0.354605 0.000000
vn 0.935016 0.354605 -0.000000
vn 0.992709 0.120537 0.000000
vn 0.992709 0.120537 -0.000000
vn 0.373968 0.927441 0.000000
vn 0.373968 0.927441 0.000000
vn 0.373968 0.927441 0.000000
vn 0.373968 0.927441 0.000000
vn 0.373968 0.927441 0.000000
vn -1.000000 0.000000 0.000000
vn -1.000000 0.000000 0.000000
vn 0.373968 -0.927441 0.000000
vn 0.373968 -0.927441 0.000000
vn 0.373968 -0.927441 0.000000
vn 0.373968 -0.927441 0.000000
vn 0.373968 -0.927441 0.000000
vn -0.866025 0.000000 0.500000
vn -0.866025 0.000000 0.500000
vn 0.000000 0.000000 1.000000
vn 0.992709 -0.120537 0.000000
vn 0.992709 -0.120537 0.000000
vn 0.935016 -0.354605 0.000000
vn 0.935016 -0.354605 0.000000
vn 0.822984 -0.568065 0.000000
vn 0.822984 -0.568065 0.000000
vn 0.464723 -0.885456 0.000000
vn 0.663123 -0.748511 0.000000
vn 0.663123 -0.748511 0.000000
vn 0.464723 -0.885456 0.000000
vn 0.239316 -0.970942 0.000000
vn 0.239316 -0.970942 0.000000
vn 0.000000 -1.000000 0.000000
vn 0.000000 -1.000000 0.000000
vn -0.239316 -0.970942 0.000000
vn -0.239316 -0.970942 0.000000
vn -0.663122 -0.748511 -0.000000
vn -0.464723 -0.885456 0.000000
vn -0.464723 -0.885456 0.000000
vn -0.663122 -0.748511 0.000000
vn -0.822984 -0.568065 0.000000
vn -0.822984 -0.568065 0.000000
vn -0.935017 -0.354604 0.000000
vn -0.935017 -0.354604 0.000000
vn -0.992709 -0.120537 0.000000
vn -0.992709 -0.120537 0.000000
vn -0.992709 0.120537 0.000000
vn -0.992709 0.120537 0.000000
vn -0.935017 0.354604 0.000000
vn -0.935017 0.354604 0.000000
vn -0.822984 0.568065 0.000000
vn -0.822984 0.568065 0.000000
vn -0.663122 0.748511 0.000000
vn -0.663122 0.748511 0.000000
vn -0.464723 0.885456 0.000000
vn -0.464723 0.885456 0.000000
vn -0.239316 0.970942 0.000000
vn -0.239316 0.970942 0.000000
vn 0.000000 1.000000 0.000000
vn 0.000000 1.000000 -0.000000
vn 0.239316 0.970942 0.000000
vn 0.239316 0.970942 -0.000000
vn 0.464723 0.885456 0.000000
vn 0.464723 0.885456 -0.000000
vn 0.663122 0.748511 0.000000
vn 0.663122 0.748511 -0.000000
vn 0.822984 0.568065 0.000000
vn 0.822984 0.568065 -0.000000
vn 0.935016 0.354605 0.000000
vn 0.935016 0.354605 -0.000000
vn 0.992709 0.120537 0.000000
vn 0.992709 0.120537 -0.000000
vn 0.500000 -0.000000 0.866025
vn 0.500000 0.000000 0.866025
vn 0.000000 -0.000000 -1.000000
vn 0.000000 0.000000 -1.000000
vn 0.000000 -0.000000 -1.000000
vn 0.000000 0.000000 -1.000000
vn 0.000000 -0.000000 -1.000000
vn 0.000000 0.000000 -1.000000
vn 0.000000 -0.000000 -1.000000
vn 0.000000 0.000000 -1.000000
vn 0.000000 -0.000000 -1.000000
vn 0.000000 -0.000000 -1.000000
vn 0.000000 0.000000 -1.000000
vn 0.000000 0.000000 -1.000000
vn 0.000000 0.000000 -1.000000
vn 0.000000 0.000000 -1.000000
vn 0.000000 0.000000 -1.000000
vn 0.000000 0.000000 -1.000000
vn 0.000000 0.000000 -1.000000
vn 0.000000 0.000000 -1.000000
vn 0.000000 0.000000 -1.000000
vn 0.000000 0.000000 -1.000000
vn 0.000000 0.000000 -1.000000
vn 0.000000 0.000000 -1.000000
vn 0.000000 0.000000 -1.000000
vn 0.000000 0.000000 -1.000000
vn 0.000000 0.000000 -1.000000
vn 0.000000 0.000000 -1.000000
vn 0.000000 0.000000 -1.000000
vn 0.000000 0.000000 -1.000000
vn 0.000000 0.000000 -1.000000
vn 0.000000 0.000000 -1.000000
vn 0.000000 0.000000 -1.000000
vn 0.000000 0.000000 -1.000000
vn 0.000000 0.000000 -1.000000
vn 0.000000 0.000000 -1.000000
vn 0.000000 0.000000 -1.000000
vn 0.000000 0.000000 -1.000000
vn 0.000000 0.000000 -1.000000
vn 0.000000 0.000000 -1.000000
vn 0.000000 0.000000 -1.000000
vn 0.000000 0.000000 -1.000000
vn 0.000000 0.000000 -1.000000
vn 0.000000 -0.000000 -1.000000
vn 0.000000 -0.000000 -1.000000
vn 0.000000 -0.000000 -1.000000
vn 0.000000 -0.000000 -1.000000
vn 0.000000 0.000000 -1.000000
vn 0.000000 0.000000 -1.000000
vn 0.000000 0.000000 -1.000000
vn 0.000000 -0.000000 -1.000000
vn 0.000000 -0.000000 -1.000000
vn 0.000000 0.000000 -1.000000
vn 0.000000 0.000000 -1.000000
vn 0.000000 0.000000 -1.000000
vn 0.000000 -0.000000 -1.000000
vn 0.000000 0.000000 -1.000000
vn 0.000000 0.000000 -1.000000
vn 0.000000 0.000000 -1.000000
f 1//1 2//1 3//1
f 4//2 2//2 1//2
f 3//3 5//3 6//3
f 2//4 5//4 3//4
f 6//5 7//5 8//5
f 8//6 7//6 9//6
f 5//7 7//7 6//7
f 9//8 10//8 11//8
f 7//9 10//9 9//9
f 10//10 12//10 11//10
f 11//11 13//11 14//11
f 12//12 13//12 11//12
f 14//13 15//13 16//13
f 13//14 15//14 14//14
f 16//15 17//15 18//15
f 15//16 17//16 16//16
f 18//17 19//17 20//17
f 20//18 19//18 21//18
f 17//19 19//19 18//19
f 19//20 22//20 21//20
f 21//21 23//21 24//21
f 22//22 23//22 21//22
f 24//23 25//23 26//23
f 23//24 25//24 24//24
f 26//25 27//25 28//25
f 25//26 27//26 26//26
f 29//27 30//27 31//27
f 32//28 31//28 30//28
f 33//29 29//29 31//29
f 34//30 31//30 32//30
f 35//31 33//31 31//31
f 1//32 31//32 34//32
f 36//33 35//33 31//33
f 3//34 31//34 1//34
f 37//35 38//35 36//35
f 37//36 39//36 38//36
f 37//37 40//37 39//37
f 37//38 41//38 40//38
f 37//39 36//39 31//39
f 42//40 41//40 37//40
f 28//41 42//41 37//41
f 26//42 28//42 37//42
f 43//43 6//43 8//43
f 44//44 43//44 8//44
f 44//45 8//45 9//45
f 45//46 6//46 43//46
f 46//47 44//47 9//47
f 46//48 9//48 11//48
f 47//49 6//49 45//49
f 47//50 3//50 6//50
f 48//51 46//51 11//51
f 48//52 11//52 14//52
f 49//53 48//53 14//53
f 49//54 14//54 16//54
f 50//55 49//55 16//55
f 50//56 16//56 18//56
f 51//57 50//57 18//57
f 51//58 18//58 20//58
f 52//59 51//59 20//59
f 52//60 20//60 21//60
f 53//61 21//61 24//61
f 53//62 52//62 21//62
f 54//63 47//63 55//63
f 54//64 56//64 57//64
f 54//65 58//65 56//65
f 54//66 59//66 58//66
f 54//67 60//67 59//67
f 54//68 55//68 60//68
f 61//69 24//69 26//69
f 61//70 53//70 24//70
f 62//71 54//71 57//71
f 63//72 54//72 62//72
f 64//73 61//73 26//73
f 64//74 65//74 61//74
f 64//75 66//75 65//75
f 64//76 67//76 66//76
f 64//77 68//77 67//77
f 64//78 69//78 68//78
f 64//79 70//79 69//79
f 64//80 63//80 70//80
f 64//81 54//81 63//81
f 64//82 26//82 37//82
f 54//83 31//83 47//83
f 47//84 31//84 3//84
f 28//85 71//85 42//85
f 27//86 71//86 28//86
f 42//87 72//87 41//87
f 71//88 72//88 42//88
f 41//89 73//89 40//89
f 72//90 73//90 41//90
f 40//91 74//91 39//91
f 73//92 74//92 40//92
f 39//93 75//93 38//93
f 74//94 75//94 39//94
f 38//95 76//95 36//95
f 75//96 76//96 38//96
f 36//97 77//97 35//97
f 76//98 77//98 36//98
f 35//99 78//99 33//99
f 77//100 78//100 35//100
f 33//101 79//101 29//101
f 78//102 79//102 33//102
f 29//103 80//103 30//103
f 79//104 80//104 29//104
f 30//105 81//105 32//105
f 80//106 81//106 30//106
f 32//107 82//107 34//107
f 81//108 82//108 32//108
f 34//109 4//109 1//109
f 82//110 4//110 34//110
f 83//111 84//111 85//111
f 83//112 85//112 86//112
f 87//113 86//113 85//113
f 64//114 86//114 87//114
f 54//115 64//115 87//115
f 31//116 54//116 87//116
f 31//117 87//117 88//117
f 37//118 31//118 88//118
f 89//119 37//119 88//119
f 85//120 89//120 88//120
f 90//121 89//121 85//121
f 84//122 90//122 85//122
f 89//123 83//123 86//123
f 89//124 90//124 83//124
f 84//125 83//125 90//125
f 55//126 91//126 60//126
f 92//127 91//127 55//127
f 60//128 93//128 59//128
f 91//129 93//129 60//129
f 59//130 94//130 58//130
f 93//131 94//131 59//131
f 56//132 95//132 57//132
f 58//133 95//133 56//133
f 94//134 95//134 58//134
f 95//135 96//135 57//135
f 57//136 97//136 62//136
f 96//137 97//137 57//137
f 62//138 98//138 63//138
f 97//139 98//139 62//139
f 63//140 99//140 70//140
f 98//141 99//141 63//141
f 69//142 100//142 68//142
f 70//143 100//143 69//143
f 99//144 100//144 70//144
f 100//145 101//145 68//145
f 68//146 102//146 67//146
f 101//147 102//147 68//147
f 67//148 103//148 66//148
f 102//149 103//149 67//149
f 66//150 104//150 65//150
f 103//151 104//151 66//151
f 65//152 105//152 61//152
f 104//153 105//153 65//153
f 61//154 106//154 53//154
f 105//155 106//155 61//155
f 53//156 107//156 52//156
f 106//157 107//157 53//157
f 52//158 108//158 51//158
f 107//159 108//159 52//159
f 51//160 109//160 50//160
f 108//161 109//161 51//161
f 50//162 110//162 49//162
f 109//163 110//163 50//163
f 49//164 111//164 48//164
f 110//165 111//165 49//165
f 48//166 112//166 46//166
f 111//167 112//167 48//167
f 46//168 113//168 44//168
f 112//169 113//169 46//169
f 44//170 114//170 43//170
f 113//171 114//171 44//171
f 43//172 115//172 45//172
f 114//173 115//173 43//173
f 45//174 116//174 47//174
f 115//175 116//175 45//175
f 47//176 92//176 55//176
f 116//177 92//177 47//177
f 37//178 86//178 64//178
f 37//179 89//179 86//179
f 80//180 79//180 88//180
f 88//181 81//181 80//181
f 79//182 78//182 88//182
f 88//183 82//183 81//183
f 78//184 77//184 88//184
f 88//185 4//185 82//185
f 77//186 76//186 88//186
f 88//187 2//187 4//187
f 76//188 75//188 88//188
f 75//189 74//189 88//189
f 7//190 113//190 10//190
f 114//191 113//191 7//191
f 5//192 115//192 7//192
f 7//193 115//193 114//193
f 113//194 112//194 10//194
f 10//195 112//195 12//195
f 5//196 116//196 115//196
f 2//197 116//197 5//197
f 12//198 111//198 13//198
f 112//199 111//199 12//199
f 13//200 110//200 15//200
f 15//201 110//201 17//201
f 111//202 110//202 13//202
f 110//203 109//203 17//203
f 17//204 108//204 19//204
f 19//205 108//205 22//205
f 109//206 108//206 17//206
f 108//207 107//207 22//207
f 22//208 106//208 23//208
f 107//209 106//209 22//209
f 2//210 87//210 116//210
f 116//211 87//211 92//211
f 92//212 87//212 91//212
f 91//213 87//213 93//213
f 93//214 87//214 94//214
f 94//215 87//215 95//215
f 95//216 87//216 96//216
f 88//217 87//217 2//217
f 87//218 97//218 96//218
f 87//219 98//219 97//219
f 87//220 99//220 98//220
f 27//221 85//221 71//221
f 71//222 85//222 72//222
f 72//223 85//223 73//223
f 73//224 85//224 74//224
f 23//225 85//225 25//225
f 106//226 85//226 23//226
f 25//227 85//227 27//227
f 104//228 85//228 105//228
f 105//229 85//229 106//229
f 101//230 85//230 102//230
f 102//231 85//231 103//231
f 103//232 85//232 104//232
f 74//233 85//233 88//233
f 87//234 85//234 99//234
f 99//235 85//235 100//235
f 100//236 85//236 101//236
